<?xml version="1.0" encoding="utf-8" standalone="no"?>
<!DOCTYPE svg PUBLIC "-//W3C//DTD SVG 1.1//EN"
  "http://www.w3.org/Graphics/SVG/1.1/DTD/svg11.dtd">
<svg xmlns:xlink="http://www.w3.org/1999/xlink" width="622.465937pt" height="395.612188pt" viewBox="0 0 622.465937 395.612188" xmlns="http://www.w3.org/2000/svg" version="1.1">
 <metadata>
  <rdf:RDF xmlns:dc="http://purl.org/dc/elements/1.1/" xmlns:cc="http://creativecommons.org/ns#" xmlns:rdf="http://www.w3.org/1999/02/22-rdf-syntax-ns#">
   <cc:Work>
    <dc:type rdf:resource="http://purl.org/dc/dcmitype/StillImage"/>
    <dc:date>2025-02-06T16:07:32.468858</dc:date>
    <dc:format>image/svg+xml</dc:format>
    <dc:creator>
     <cc:Agent>
      <dc:title>Matplotlib v3.10.0, https://matplotlib.org/</dc:title>
     </cc:Agent>
    </dc:creator>
   </cc:Work>
  </rdf:RDF>
 </metadata>
 <defs>
  <style type="text/css">*{stroke-linejoin: round; stroke-linecap: butt}</style>
 </defs>
 <g id="figure_1">
  <g id="patch_1">
   <path d="M 0 395.612188 
L 622.465937 395.612188 
L 622.465937 0 
L 0 0 
z
" style="fill: #ffffff"/>
  </g>
  <g id="axes_1">
   <g id="patch_2">
    <path d="M 57.265938 357.2925 
L 615.265938 357.2925 
L 615.265938 24.6525 
L 57.265938 24.6525 
z
" style="fill: #eaeaf2"/>
   </g>
   <g id="matplotlib.axis_1">
    <g id="xtick_1">
     <g id="line2d_1">
      <path d="M 82.629574 357.2925 
L 82.629574 24.6525 
" clip-path="url(#pdbe3011ff4)" style="fill: none; stroke: #ffffff; stroke-opacity: 0.3; stroke-width: 0.8; stroke-linecap: round"/>
     </g>
     <g id="text_1">
      <!-- 1.0 -->
      <g style="fill: #262626" transform="translate(75.679574 371.450312) scale(0.1 -0.1)">
       <defs>
        <path id="ArialMT-31" d="M 2384 0 
L 1822 0 
L 1822 3584 
Q 1619 3391 1289 3197 
Q 959 3003 697 2906 
L 697 3450 
Q 1169 3672 1522 3987 
Q 1875 4303 2022 4600 
L 2384 4600 
L 2384 0 
z
" transform="scale(0.015625)"/>
        <path id="ArialMT-2e" d="M 581 0 
L 581 641 
L 1222 641 
L 1222 0 
L 581 0 
z
" transform="scale(0.015625)"/>
        <path id="ArialMT-30" d="M 266 2259 
Q 266 3072 433 3567 
Q 600 4063 929 4331 
Q 1259 4600 1759 4600 
Q 2128 4600 2406 4451 
Q 2684 4303 2865 4023 
Q 3047 3744 3150 3342 
Q 3253 2941 3253 2259 
Q 3253 1453 3087 958 
Q 2922 463 2592 192 
Q 2263 -78 1759 -78 
Q 1097 -78 719 397 
Q 266 969 266 2259 
z
M 844 2259 
Q 844 1131 1108 757 
Q 1372 384 1759 384 
Q 2147 384 2411 759 
Q 2675 1134 2675 2259 
Q 2675 3391 2411 3762 
Q 2147 4134 1753 4134 
Q 1366 4134 1134 3806 
Q 844 3388 844 2259 
z
" transform="scale(0.015625)"/>
       </defs>
       <use xlink:href="#ArialMT-31"/>
       <use xlink:href="#ArialMT-2e" transform="translate(55.615234 0)"/>
       <use xlink:href="#ArialMT-30" transform="translate(83.398438 0)"/>
      </g>
     </g>
    </g>
    <g id="xtick_2">
     <g id="line2d_2">
      <path d="M 146.038665 357.2925 
L 146.038665 24.6525 
" clip-path="url(#pdbe3011ff4)" style="fill: none; stroke: #ffffff; stroke-opacity: 0.3; stroke-width: 0.8; stroke-linecap: round"/>
     </g>
     <g id="text_2">
      <!-- 1.5 -->
      <g style="fill: #262626" transform="translate(139.088665 371.450312) scale(0.1 -0.1)">
       <defs>
        <path id="ArialMT-35" d="M 266 1200 
L 856 1250 
Q 922 819 1161 601 
Q 1400 384 1738 384 
Q 2144 384 2425 690 
Q 2706 997 2706 1503 
Q 2706 1984 2436 2262 
Q 2166 2541 1728 2541 
Q 1456 2541 1237 2417 
Q 1019 2294 894 2097 
L 366 2166 
L 809 4519 
L 3088 4519 
L 3088 3981 
L 1259 3981 
L 1013 2750 
Q 1425 3038 1878 3038 
Q 2478 3038 2890 2622 
Q 3303 2206 3303 1553 
Q 3303 931 2941 478 
Q 2500 -78 1738 -78 
Q 1113 -78 717 272 
Q 322 622 266 1200 
z
" transform="scale(0.015625)"/>
       </defs>
       <use xlink:href="#ArialMT-31"/>
       <use xlink:href="#ArialMT-2e" transform="translate(55.615234 0)"/>
       <use xlink:href="#ArialMT-35" transform="translate(83.398438 0)"/>
      </g>
     </g>
    </g>
    <g id="xtick_3">
     <g id="line2d_3">
      <path d="M 209.447756 357.2925 
L 209.447756 24.6525 
" clip-path="url(#pdbe3011ff4)" style="fill: none; stroke: #ffffff; stroke-opacity: 0.3; stroke-width: 0.8; stroke-linecap: round"/>
     </g>
     <g id="text_3">
      <!-- 2.0 -->
      <g style="fill: #262626" transform="translate(202.497756 371.450312) scale(0.1 -0.1)">
       <defs>
        <path id="ArialMT-32" d="M 3222 541 
L 3222 0 
L 194 0 
Q 188 203 259 391 
Q 375 700 629 1000 
Q 884 1300 1366 1694 
Q 2113 2306 2375 2664 
Q 2638 3022 2638 3341 
Q 2638 3675 2398 3904 
Q 2159 4134 1775 4134 
Q 1369 4134 1125 3890 
Q 881 3647 878 3216 
L 300 3275 
Q 359 3922 746 4261 
Q 1134 4600 1788 4600 
Q 2447 4600 2831 4234 
Q 3216 3869 3216 3328 
Q 3216 3053 3103 2787 
Q 2991 2522 2730 2228 
Q 2469 1934 1863 1422 
Q 1356 997 1212 845 
Q 1069 694 975 541 
L 3222 541 
z
" transform="scale(0.015625)"/>
       </defs>
       <use xlink:href="#ArialMT-32"/>
       <use xlink:href="#ArialMT-2e" transform="translate(55.615234 0)"/>
       <use xlink:href="#ArialMT-30" transform="translate(83.398438 0)"/>
      </g>
     </g>
    </g>
    <g id="xtick_4">
     <g id="line2d_4">
      <path d="M 272.856847 357.2925 
L 272.856847 24.6525 
" clip-path="url(#pdbe3011ff4)" style="fill: none; stroke: #ffffff; stroke-opacity: 0.3; stroke-width: 0.8; stroke-linecap: round"/>
     </g>
     <g id="text_4">
      <!-- 2.5 -->
      <g style="fill: #262626" transform="translate(265.906847 371.450312) scale(0.1 -0.1)">
       <use xlink:href="#ArialMT-32"/>
       <use xlink:href="#ArialMT-2e" transform="translate(55.615234 0)"/>
       <use xlink:href="#ArialMT-35" transform="translate(83.398438 0)"/>
      </g>
     </g>
    </g>
    <g id="xtick_5">
     <g id="line2d_5">
      <path d="M 336.265938 357.2925 
L 336.265938 24.6525 
" clip-path="url(#pdbe3011ff4)" style="fill: none; stroke: #ffffff; stroke-opacity: 0.3; stroke-width: 0.8; stroke-linecap: round"/>
     </g>
     <g id="text_5">
      <!-- 3.0 -->
      <g style="fill: #262626" transform="translate(329.315938 371.450312) scale(0.1 -0.1)">
       <defs>
        <path id="ArialMT-33" d="M 269 1209 
L 831 1284 
Q 928 806 1161 595 
Q 1394 384 1728 384 
Q 2125 384 2398 659 
Q 2672 934 2672 1341 
Q 2672 1728 2419 1979 
Q 2166 2231 1775 2231 
Q 1616 2231 1378 2169 
L 1441 2663 
Q 1497 2656 1531 2656 
Q 1891 2656 2178 2843 
Q 2466 3031 2466 3422 
Q 2466 3731 2256 3934 
Q 2047 4138 1716 4138 
Q 1388 4138 1169 3931 
Q 950 3725 888 3313 
L 325 3413 
Q 428 3978 793 4289 
Q 1159 4600 1703 4600 
Q 2078 4600 2393 4439 
Q 2709 4278 2876 4000 
Q 3044 3722 3044 3409 
Q 3044 3113 2884 2869 
Q 2725 2625 2413 2481 
Q 2819 2388 3044 2092 
Q 3269 1797 3269 1353 
Q 3269 753 2831 336 
Q 2394 -81 1725 -81 
Q 1122 -81 723 278 
Q 325 638 269 1209 
z
" transform="scale(0.015625)"/>
       </defs>
       <use xlink:href="#ArialMT-33"/>
       <use xlink:href="#ArialMT-2e" transform="translate(55.615234 0)"/>
       <use xlink:href="#ArialMT-30" transform="translate(83.398438 0)"/>
      </g>
     </g>
    </g>
    <g id="xtick_6">
     <g id="line2d_6">
      <path d="M 399.675028 357.2925 
L 399.675028 24.6525 
" clip-path="url(#pdbe3011ff4)" style="fill: none; stroke: #ffffff; stroke-opacity: 0.3; stroke-width: 0.8; stroke-linecap: round"/>
     </g>
     <g id="text_6">
      <!-- 3.5 -->
      <g style="fill: #262626" transform="translate(392.725028 371.450312) scale(0.1 -0.1)">
       <use xlink:href="#ArialMT-33"/>
       <use xlink:href="#ArialMT-2e" transform="translate(55.615234 0)"/>
       <use xlink:href="#ArialMT-35" transform="translate(83.398438 0)"/>
      </g>
     </g>
    </g>
    <g id="xtick_7">
     <g id="line2d_7">
      <path d="M 463.084119 357.2925 
L 463.084119 24.6525 
" clip-path="url(#pdbe3011ff4)" style="fill: none; stroke: #ffffff; stroke-opacity: 0.3; stroke-width: 0.8; stroke-linecap: round"/>
     </g>
     <g id="text_7">
      <!-- 4.0 -->
      <g style="fill: #262626" transform="translate(456.134119 371.450312) scale(0.1 -0.1)">
       <defs>
        <path id="ArialMT-34" d="M 2069 0 
L 2069 1097 
L 81 1097 
L 81 1613 
L 2172 4581 
L 2631 4581 
L 2631 1613 
L 3250 1613 
L 3250 1097 
L 2631 1097 
L 2631 0 
L 2069 0 
z
M 2069 1613 
L 2069 3678 
L 634 1613 
L 2069 1613 
z
" transform="scale(0.015625)"/>
       </defs>
       <use xlink:href="#ArialMT-34"/>
       <use xlink:href="#ArialMT-2e" transform="translate(55.615234 0)"/>
       <use xlink:href="#ArialMT-30" transform="translate(83.398438 0)"/>
      </g>
     </g>
    </g>
    <g id="xtick_8">
     <g id="line2d_8">
      <path d="M 526.49321 357.2925 
L 526.49321 24.6525 
" clip-path="url(#pdbe3011ff4)" style="fill: none; stroke: #ffffff; stroke-opacity: 0.3; stroke-width: 0.8; stroke-linecap: round"/>
     </g>
     <g id="text_8">
      <!-- 4.5 -->
      <g style="fill: #262626" transform="translate(519.54321 371.450312) scale(0.1 -0.1)">
       <use xlink:href="#ArialMT-34"/>
       <use xlink:href="#ArialMT-2e" transform="translate(55.615234 0)"/>
       <use xlink:href="#ArialMT-35" transform="translate(83.398438 0)"/>
      </g>
     </g>
    </g>
    <g id="xtick_9">
     <g id="line2d_9">
      <path d="M 589.902301 357.2925 
L 589.902301 24.6525 
" clip-path="url(#pdbe3011ff4)" style="fill: none; stroke: #ffffff; stroke-opacity: 0.3; stroke-width: 0.8; stroke-linecap: round"/>
     </g>
     <g id="text_9">
      <!-- 5.0 -->
      <g style="fill: #262626" transform="translate(582.952301 371.450312) scale(0.1 -0.1)">
       <use xlink:href="#ArialMT-35"/>
       <use xlink:href="#ArialMT-2e" transform="translate(55.615234 0)"/>
       <use xlink:href="#ArialMT-30" transform="translate(83.398438 0)"/>
      </g>
     </g>
    </g>
    <g id="text_10">
     <!-- Condition -->
     <g style="fill: #262626" transform="translate(310.916875 386.027188) scale(0.12 -0.12)">
      <defs>
       <path id="ArialMT-43" d="M 3763 1606 
L 4369 1453 
Q 4178 706 3683 314 
Q 3188 -78 2472 -78 
Q 1731 -78 1267 223 
Q 803 525 561 1097 
Q 319 1669 319 2325 
Q 319 3041 592 3573 
Q 866 4106 1370 4382 
Q 1875 4659 2481 4659 
Q 3169 4659 3637 4309 
Q 4106 3959 4291 3325 
L 3694 3184 
Q 3534 3684 3231 3912 
Q 2928 4141 2469 4141 
Q 1941 4141 1586 3887 
Q 1231 3634 1087 3207 
Q 944 2781 944 2328 
Q 944 1744 1114 1308 
Q 1284 872 1643 656 
Q 2003 441 2422 441 
Q 2931 441 3284 734 
Q 3638 1028 3763 1606 
z
" transform="scale(0.015625)"/>
       <path id="ArialMT-6f" d="M 213 1659 
Q 213 2581 725 3025 
Q 1153 3394 1769 3394 
Q 2453 3394 2887 2945 
Q 3322 2497 3322 1706 
Q 3322 1066 3130 698 
Q 2938 331 2570 128 
Q 2203 -75 1769 -75 
Q 1072 -75 642 372 
Q 213 819 213 1659 
z
M 791 1659 
Q 791 1022 1069 705 
Q 1347 388 1769 388 
Q 2188 388 2466 706 
Q 2744 1025 2744 1678 
Q 2744 2294 2464 2611 
Q 2184 2928 1769 2928 
Q 1347 2928 1069 2612 
Q 791 2297 791 1659 
z
" transform="scale(0.015625)"/>
       <path id="ArialMT-6e" d="M 422 0 
L 422 3319 
L 928 3319 
L 928 2847 
Q 1294 3394 1984 3394 
Q 2284 3394 2536 3286 
Q 2788 3178 2913 3003 
Q 3038 2828 3088 2588 
Q 3119 2431 3119 2041 
L 3119 0 
L 2556 0 
L 2556 2019 
Q 2556 2363 2490 2533 
Q 2425 2703 2258 2804 
Q 2091 2906 1866 2906 
Q 1506 2906 1245 2678 
Q 984 2450 984 1813 
L 984 0 
L 422 0 
z
" transform="scale(0.015625)"/>
       <path id="ArialMT-64" d="M 2575 0 
L 2575 419 
Q 2259 -75 1647 -75 
Q 1250 -75 917 144 
Q 584 363 401 755 
Q 219 1147 219 1656 
Q 219 2153 384 2558 
Q 550 2963 881 3178 
Q 1213 3394 1622 3394 
Q 1922 3394 2156 3267 
Q 2391 3141 2538 2938 
L 2538 4581 
L 3097 4581 
L 3097 0 
L 2575 0 
z
M 797 1656 
Q 797 1019 1065 703 
Q 1334 388 1700 388 
Q 2069 388 2326 689 
Q 2584 991 2584 1609 
Q 2584 2291 2321 2609 
Q 2059 2928 1675 2928 
Q 1300 2928 1048 2622 
Q 797 2316 797 1656 
z
" transform="scale(0.015625)"/>
       <path id="ArialMT-69" d="M 425 3934 
L 425 4581 
L 988 4581 
L 988 3934 
L 425 3934 
z
M 425 0 
L 425 3319 
L 988 3319 
L 988 0 
L 425 0 
z
" transform="scale(0.015625)"/>
       <path id="ArialMT-74" d="M 1650 503 
L 1731 6 
Q 1494 -44 1306 -44 
Q 1000 -44 831 53 
Q 663 150 594 308 
Q 525 466 525 972 
L 525 2881 
L 113 2881 
L 113 3319 
L 525 3319 
L 525 4141 
L 1084 4478 
L 1084 3319 
L 1650 3319 
L 1650 2881 
L 1084 2881 
L 1084 941 
Q 1084 700 1114 631 
Q 1144 563 1211 522 
Q 1278 481 1403 481 
Q 1497 481 1650 503 
z
" transform="scale(0.015625)"/>
      </defs>
      <use xlink:href="#ArialMT-43"/>
      <use xlink:href="#ArialMT-6f" transform="translate(72.216797 0)"/>
      <use xlink:href="#ArialMT-6e" transform="translate(127.832031 0)"/>
      <use xlink:href="#ArialMT-64" transform="translate(183.447266 0)"/>
      <use xlink:href="#ArialMT-69" transform="translate(239.0625 0)"/>
      <use xlink:href="#ArialMT-74" transform="translate(261.279297 0)"/>
      <use xlink:href="#ArialMT-69" transform="translate(289.0625 0)"/>
      <use xlink:href="#ArialMT-6f" transform="translate(311.279297 0)"/>
      <use xlink:href="#ArialMT-6e" transform="translate(366.894531 0)"/>
     </g>
    </g>
   </g>
   <g id="matplotlib.axis_2">
    <g id="ytick_1">
     <g id="line2d_10">
      <path d="M 57.265938 312.498946 
L 615.265938 312.498946 
" clip-path="url(#pdbe3011ff4)" style="fill: none; stroke: #ffffff; stroke-opacity: 0.3; stroke-width: 0.8; stroke-linecap: round"/>
     </g>
     <g id="text_11">
      <!-- 5000 -->
      <g style="fill: #262626" transform="translate(28.022188 316.077852) scale(0.1 -0.1)">
       <use xlink:href="#ArialMT-35"/>
       <use xlink:href="#ArialMT-30" transform="translate(55.615234 0)"/>
       <use xlink:href="#ArialMT-30" transform="translate(111.230469 0)"/>
       <use xlink:href="#ArialMT-30" transform="translate(166.845703 0)"/>
      </g>
     </g>
    </g>
    <g id="ytick_2">
     <g id="line2d_11">
      <path d="M 57.265938 244.110533 
L 615.265938 244.110533 
" clip-path="url(#pdbe3011ff4)" style="fill: none; stroke: #ffffff; stroke-opacity: 0.3; stroke-width: 0.8; stroke-linecap: round"/>
     </g>
     <g id="text_12">
      <!-- 10000 -->
      <g style="fill: #262626" transform="translate(22.46125 247.689439) scale(0.1 -0.1)">
       <use xlink:href="#ArialMT-31"/>
       <use xlink:href="#ArialMT-30" transform="translate(55.615234 0)"/>
       <use xlink:href="#ArialMT-30" transform="translate(111.230469 0)"/>
       <use xlink:href="#ArialMT-30" transform="translate(166.845703 0)"/>
       <use xlink:href="#ArialMT-30" transform="translate(222.460938 0)"/>
      </g>
     </g>
    </g>
    <g id="ytick_3">
     <g id="line2d_12">
      <path d="M 57.265938 175.72212 
L 615.265938 175.72212 
" clip-path="url(#pdbe3011ff4)" style="fill: none; stroke: #ffffff; stroke-opacity: 0.3; stroke-width: 0.8; stroke-linecap: round"/>
     </g>
     <g id="text_13">
      <!-- 15000 -->
      <g style="fill: #262626" transform="translate(22.46125 179.301026) scale(0.1 -0.1)">
       <use xlink:href="#ArialMT-31"/>
       <use xlink:href="#ArialMT-35" transform="translate(55.615234 0)"/>
       <use xlink:href="#ArialMT-30" transform="translate(111.230469 0)"/>
       <use xlink:href="#ArialMT-30" transform="translate(166.845703 0)"/>
       <use xlink:href="#ArialMT-30" transform="translate(222.460938 0)"/>
      </g>
     </g>
    </g>
    <g id="ytick_4">
     <g id="line2d_13">
      <path d="M 57.265938 107.333707 
L 615.265938 107.333707 
" clip-path="url(#pdbe3011ff4)" style="fill: none; stroke: #ffffff; stroke-opacity: 0.3; stroke-width: 0.8; stroke-linecap: round"/>
     </g>
     <g id="text_14">
      <!-- 20000 -->
      <g style="fill: #262626" transform="translate(22.46125 110.912613) scale(0.1 -0.1)">
       <use xlink:href="#ArialMT-32"/>
       <use xlink:href="#ArialMT-30" transform="translate(55.615234 0)"/>
       <use xlink:href="#ArialMT-30" transform="translate(111.230469 0)"/>
       <use xlink:href="#ArialMT-30" transform="translate(166.845703 0)"/>
       <use xlink:href="#ArialMT-30" transform="translate(222.460938 0)"/>
      </g>
     </g>
    </g>
    <g id="ytick_5">
     <g id="line2d_14">
      <path d="M 57.265938 38.945294 
L 615.265938 38.945294 
" clip-path="url(#pdbe3011ff4)" style="fill: none; stroke: #ffffff; stroke-opacity: 0.3; stroke-width: 0.8; stroke-linecap: round"/>
     </g>
     <g id="text_15">
      <!-- 25000 -->
      <g style="fill: #262626" transform="translate(22.46125 42.5242) scale(0.1 -0.1)">
       <use xlink:href="#ArialMT-32"/>
       <use xlink:href="#ArialMT-35" transform="translate(55.615234 0)"/>
       <use xlink:href="#ArialMT-30" transform="translate(111.230469 0)"/>
       <use xlink:href="#ArialMT-30" transform="translate(166.845703 0)"/>
       <use xlink:href="#ArialMT-30" transform="translate(222.460938 0)"/>
      </g>
     </g>
    </g>
    <g id="text_16">
     <!-- Sellingprice -->
     <g style="fill: #262626" transform="translate(15.935625 221.987812) rotate(-90) scale(0.12 -0.12)">
      <defs>
       <path id="ArialMT-53" d="M 288 1472 
L 859 1522 
Q 900 1178 1048 958 
Q 1197 738 1509 602 
Q 1822 466 2213 466 
Q 2559 466 2825 569 
Q 3091 672 3220 851 
Q 3350 1031 3350 1244 
Q 3350 1459 3225 1620 
Q 3100 1781 2813 1891 
Q 2628 1963 1997 2114 
Q 1366 2266 1113 2400 
Q 784 2572 623 2826 
Q 463 3081 463 3397 
Q 463 3744 659 4045 
Q 856 4347 1234 4503 
Q 1613 4659 2075 4659 
Q 2584 4659 2973 4495 
Q 3363 4331 3572 4012 
Q 3781 3694 3797 3291 
L 3216 3247 
Q 3169 3681 2898 3903 
Q 2628 4125 2100 4125 
Q 1550 4125 1298 3923 
Q 1047 3722 1047 3438 
Q 1047 3191 1225 3031 
Q 1400 2872 2139 2705 
Q 2878 2538 3153 2413 
Q 3553 2228 3743 1945 
Q 3934 1663 3934 1294 
Q 3934 928 3725 604 
Q 3516 281 3123 101 
Q 2731 -78 2241 -78 
Q 1619 -78 1198 103 
Q 778 284 539 648 
Q 300 1013 288 1472 
z
" transform="scale(0.015625)"/>
       <path id="ArialMT-65" d="M 2694 1069 
L 3275 997 
Q 3138 488 2766 206 
Q 2394 -75 1816 -75 
Q 1088 -75 661 373 
Q 234 822 234 1631 
Q 234 2469 665 2931 
Q 1097 3394 1784 3394 
Q 2450 3394 2872 2941 
Q 3294 2488 3294 1666 
Q 3294 1616 3291 1516 
L 816 1516 
Q 847 969 1125 678 
Q 1403 388 1819 388 
Q 2128 388 2347 550 
Q 2566 713 2694 1069 
z
M 847 1978 
L 2700 1978 
Q 2663 2397 2488 2606 
Q 2219 2931 1791 2931 
Q 1403 2931 1139 2672 
Q 875 2413 847 1978 
z
" transform="scale(0.015625)"/>
       <path id="ArialMT-6c" d="M 409 0 
L 409 4581 
L 972 4581 
L 972 0 
L 409 0 
z
" transform="scale(0.015625)"/>
       <path id="ArialMT-67" d="M 319 -275 
L 866 -356 
Q 900 -609 1056 -725 
Q 1266 -881 1628 -881 
Q 2019 -881 2231 -725 
Q 2444 -569 2519 -288 
Q 2563 -116 2559 434 
Q 2191 0 1641 0 
Q 956 0 581 494 
Q 206 988 206 1678 
Q 206 2153 378 2554 
Q 550 2956 876 3175 
Q 1203 3394 1644 3394 
Q 2231 3394 2613 2919 
L 2613 3319 
L 3131 3319 
L 3131 450 
Q 3131 -325 2973 -648 
Q 2816 -972 2473 -1159 
Q 2131 -1347 1631 -1347 
Q 1038 -1347 672 -1080 
Q 306 -813 319 -275 
z
M 784 1719 
Q 784 1066 1043 766 
Q 1303 466 1694 466 
Q 2081 466 2343 764 
Q 2606 1063 2606 1700 
Q 2606 2309 2336 2618 
Q 2066 2928 1684 2928 
Q 1309 2928 1046 2623 
Q 784 2319 784 1719 
z
" transform="scale(0.015625)"/>
       <path id="ArialMT-70" d="M 422 -1272 
L 422 3319 
L 934 3319 
L 934 2888 
Q 1116 3141 1344 3267 
Q 1572 3394 1897 3394 
Q 2322 3394 2647 3175 
Q 2972 2956 3137 2557 
Q 3303 2159 3303 1684 
Q 3303 1175 3120 767 
Q 2938 359 2589 142 
Q 2241 -75 1856 -75 
Q 1575 -75 1351 44 
Q 1128 163 984 344 
L 984 -1272 
L 422 -1272 
z
M 931 1641 
Q 931 1000 1190 694 
Q 1450 388 1819 388 
Q 2194 388 2461 705 
Q 2728 1022 2728 1688 
Q 2728 2322 2467 2637 
Q 2206 2953 1844 2953 
Q 1484 2953 1207 2617 
Q 931 2281 931 1641 
z
" transform="scale(0.015625)"/>
       <path id="ArialMT-72" d="M 416 0 
L 416 3319 
L 922 3319 
L 922 2816 
Q 1116 3169 1280 3281 
Q 1444 3394 1641 3394 
Q 1925 3394 2219 3213 
L 2025 2691 
Q 1819 2813 1613 2813 
Q 1428 2813 1281 2702 
Q 1134 2591 1072 2394 
Q 978 2094 978 1738 
L 978 0 
L 416 0 
z
" transform="scale(0.015625)"/>
       <path id="ArialMT-63" d="M 2588 1216 
L 3141 1144 
Q 3050 572 2676 248 
Q 2303 -75 1759 -75 
Q 1078 -75 664 370 
Q 250 816 250 1647 
Q 250 2184 428 2587 
Q 606 2991 970 3192 
Q 1334 3394 1763 3394 
Q 2303 3394 2647 3120 
Q 2991 2847 3088 2344 
L 2541 2259 
Q 2463 2594 2264 2762 
Q 2066 2931 1784 2931 
Q 1359 2931 1093 2626 
Q 828 2322 828 1663 
Q 828 994 1084 691 
Q 1341 388 1753 388 
Q 2084 388 2306 591 
Q 2528 794 2588 1216 
z
" transform="scale(0.015625)"/>
      </defs>
      <use xlink:href="#ArialMT-53"/>
      <use xlink:href="#ArialMT-65" transform="translate(66.699219 0)"/>
      <use xlink:href="#ArialMT-6c" transform="translate(122.314453 0)"/>
      <use xlink:href="#ArialMT-6c" transform="translate(144.53125 0)"/>
      <use xlink:href="#ArialMT-69" transform="translate(166.748047 0)"/>
      <use xlink:href="#ArialMT-6e" transform="translate(188.964844 0)"/>
      <use xlink:href="#ArialMT-67" transform="translate(244.580078 0)"/>
      <use xlink:href="#ArialMT-70" transform="translate(300.195312 0)"/>
      <use xlink:href="#ArialMT-72" transform="translate(355.810547 0)"/>
      <use xlink:href="#ArialMT-69" transform="translate(389.111328 0)"/>
      <use xlink:href="#ArialMT-63" transform="translate(411.328125 0)"/>
      <use xlink:href="#ArialMT-65" transform="translate(461.328125 0)"/>
     </g>
    </g>
   </g>
   <g id="FillBetweenPolyCollection_1">
    <defs>
     <path id="m065f46aa09" d="M 82.629574 -70.019995 
L 82.629574 -66.886207 
L 95.311392 -64.96217 
L 107.99321 -54.771013 
L 120.675028 -54.071518 
L 133.356847 -53.439688 
L 146.038665 -60.349101 
L 158.720483 -66.065364 
L 171.402301 -63.353352 
L 184.084119 -71.703836 
L 196.765938 -83.615422 
L 209.447756 -91.453344 
L 222.129574 -113.213419 
L 234.811392 -116.819757 
L 247.49321 -123.103226 
L 260.175028 -127.291949 
L 272.856847 -134.061355 
L 285.538665 -138.631896 
L 298.220483 -145.148327 
L 310.902301 -152.809581 
L 323.584119 -160.538746 
L 336.265938 -180.559787 
L 348.947756 -172.119776 
L 361.629574 -175.202829 
L 374.311392 -179.950191 
L 386.99321 -187.351716 
L 399.675028 -196.413383 
L 412.356847 -206.143707 
L 425.038665 -216.651152 
L 437.720483 -224.414518 
L 450.402301 -231.773153 
L 463.084119 -255.605211 
L 475.765937 -250.300074 
L 488.447756 -258.482453 
L 501.129574 -267.781723 
L 513.811392 -275.985429 
L 526.49321 -286.105966 
L 539.175028 -293.030413 
L 551.856847 -299.285772 
L 564.538665 -307.721022 
L 577.220483 -325.306362 
L 589.902301 -349.774874 
L 589.902301 -355.839688 
L 589.902301 -355.839688 
L 577.220483 -330.671571 
L 564.538665 -312.817079 
L 551.856847 -304.672538 
L 539.175028 -297.856472 
L 526.49321 -290.745233 
L 513.811392 -279.285693 
L 501.129574 -270.869505 
L 488.447756 -261.649634 
L 475.765937 -253.467081 
L 463.084119 -258.713692 
L 450.402301 -234.963026 
L 437.720483 -227.476821 
L 425.038665 -219.278407 
L 412.356847 -208.867786 
L 399.675028 -198.826586 
L 386.99321 -190.382673 
L 374.311392 -183.707147 
L 361.629574 -179.025153 
L 348.947756 -176.171374 
L 336.265938 -184.633927 
L 323.584119 -163.23995 
L 310.902301 -155.535737 
L 298.220483 -148.046373 
L 285.538665 -141.859132 
L 272.856847 -137.212892 
L 260.175028 -130.912444 
L 247.49321 -126.874366 
L 234.811392 -121.131094 
L 222.129574 -116.723128 
L 209.447756 -93.687754 
L 196.765938 -84.874186 
L 184.084119 -84.164978 
L 171.402301 -78.348989 
L 158.720483 -83.981688 
L 146.038665 -76.366416 
L 133.356847 -67.262823 
L 120.675028 -73.48924 
L 107.99321 -81.474799 
L 95.311392 -89.700736 
L 82.629574 -70.019995 
z
" style="stroke: #000000; stroke-opacity: 0.2"/>
    </defs>
    <g clip-path="url(#pdbe3011ff4)">
     <use xlink:href="#m065f46aa09" x="0" y="395.612188" style="fill-opacity: 0.2; stroke: #000000; stroke-opacity: 0.2"/>
    </g>
   </g>
   <g id="line2d_15">
    <path d="M 82.629574 327.227951 
L 95.311392 319.276474 
L 107.99321 328.627813 
L 120.675028 332.264866 
L 133.356847 335.424375 
L 146.038665 327.359178 
L 158.720483 320.893816 
L 171.402301 325.15221 
L 184.084119 318.1881 
L 196.765938 311.373398 
L 209.447756 303.042054 
L 222.129574 280.621771 
L 234.811392 276.710177 
L 247.49321 270.617008 
L 260.175028 266.52117 
L 272.856847 259.979437 
L 285.538665 255.404982 
L 298.220483 248.987762 
L 310.902301 241.390161 
L 323.584119 233.757164 
L 336.265938 212.994048 
L 348.947756 221.506839 
L 361.629574 218.539828 
L 374.311392 213.760854 
L 386.99321 206.825454 
L 399.675028 198.00316 
L 412.356847 188.166892 
L 425.038665 177.641032 
L 437.720483 169.617804 
L 450.402301 162.225816 
L 463.084119 138.456741 
L 475.765937 143.802971 
L 488.447756 135.583435 
L 501.129574 126.294557 
L 513.811392 117.969971 
L 526.49321 107.043285 
L 539.175028 100.13001 
L 551.856847 93.629239 
L 564.538665 85.398212 
L 577.220483 67.579582 
L 589.902301 42.710419 
" clip-path="url(#pdbe3011ff4)" style="fill: none; stroke: #000000; stroke-width: 2; stroke-linecap: round"/>
    <defs>
     <path id="m00361d21b0" d="M 0 3 
C 0.795609 3 1.55874 2.683901 2.12132 2.12132 
C 2.683901 1.55874 3 0.795609 3 0 
C 3 -0.795609 2.683901 -1.55874 2.12132 -2.12132 
C 1.55874 -2.683901 0.795609 -3 0 -3 
C -0.795609 -3 -1.55874 -2.683901 -2.12132 -2.12132 
C -2.683901 -1.55874 -3 -0.795609 -3 0 
C -3 0.795609 -2.683901 1.55874 -2.12132 2.12132 
C -1.55874 2.683901 -0.795609 3 0 3 
z
" style="stroke: #ffffff; stroke-width: 0.75"/>
    </defs>
    <g clip-path="url(#pdbe3011ff4)">
     <use xlink:href="#m00361d21b0" x="82.629574" y="327.227951" style="stroke: #ffffff; stroke-width: 0.75"/>
     <use xlink:href="#m00361d21b0" x="95.311392" y="319.276474" style="stroke: #ffffff; stroke-width: 0.75"/>
     <use xlink:href="#m00361d21b0" x="107.99321" y="328.627813" style="stroke: #ffffff; stroke-width: 0.75"/>
     <use xlink:href="#m00361d21b0" x="120.675028" y="332.264866" style="stroke: #ffffff; stroke-width: 0.75"/>
     <use xlink:href="#m00361d21b0" x="133.356847" y="335.424375" style="stroke: #ffffff; stroke-width: 0.75"/>
     <use xlink:href="#m00361d21b0" x="146.038665" y="327.359178" style="stroke: #ffffff; stroke-width: 0.75"/>
     <use xlink:href="#m00361d21b0" x="158.720483" y="320.893816" style="stroke: #ffffff; stroke-width: 0.75"/>
     <use xlink:href="#m00361d21b0" x="171.402301" y="325.15221" style="stroke: #ffffff; stroke-width: 0.75"/>
     <use xlink:href="#m00361d21b0" x="184.084119" y="318.1881" style="stroke: #ffffff; stroke-width: 0.75"/>
     <use xlink:href="#m00361d21b0" x="196.765938" y="311.373398" style="stroke: #ffffff; stroke-width: 0.75"/>
     <use xlink:href="#m00361d21b0" x="209.447756" y="303.042054" style="stroke: #ffffff; stroke-width: 0.75"/>
     <use xlink:href="#m00361d21b0" x="222.129574" y="280.621771" style="stroke: #ffffff; stroke-width: 0.75"/>
     <use xlink:href="#m00361d21b0" x="234.811392" y="276.710177" style="stroke: #ffffff; stroke-width: 0.75"/>
     <use xlink:href="#m00361d21b0" x="247.49321" y="270.617008" style="stroke: #ffffff; stroke-width: 0.75"/>
     <use xlink:href="#m00361d21b0" x="260.175028" y="266.52117" style="stroke: #ffffff; stroke-width: 0.75"/>
     <use xlink:href="#m00361d21b0" x="272.856847" y="259.979437" style="stroke: #ffffff; stroke-width: 0.75"/>
     <use xlink:href="#m00361d21b0" x="285.538665" y="255.404982" style="stroke: #ffffff; stroke-width: 0.75"/>
     <use xlink:href="#m00361d21b0" x="298.220483" y="248.987762" style="stroke: #ffffff; stroke-width: 0.75"/>
     <use xlink:href="#m00361d21b0" x="310.902301" y="241.390161" style="stroke: #ffffff; stroke-width: 0.75"/>
     <use xlink:href="#m00361d21b0" x="323.584119" y="233.757164" style="stroke: #ffffff; stroke-width: 0.75"/>
     <use xlink:href="#m00361d21b0" x="336.265938" y="212.994048" style="stroke: #ffffff; stroke-width: 0.75"/>
     <use xlink:href="#m00361d21b0" x="348.947756" y="221.506839" style="stroke: #ffffff; stroke-width: 0.75"/>
     <use xlink:href="#m00361d21b0" x="361.629574" y="218.539828" style="stroke: #ffffff; stroke-width: 0.75"/>
     <use xlink:href="#m00361d21b0" x="374.311392" y="213.760854" style="stroke: #ffffff; stroke-width: 0.75"/>
     <use xlink:href="#m00361d21b0" x="386.99321" y="206.825454" style="stroke: #ffffff; stroke-width: 0.75"/>
     <use xlink:href="#m00361d21b0" x="399.675028" y="198.00316" style="stroke: #ffffff; stroke-width: 0.75"/>
     <use xlink:href="#m00361d21b0" x="412.356847" y="188.166892" style="stroke: #ffffff; stroke-width: 0.75"/>
     <use xlink:href="#m00361d21b0" x="425.038665" y="177.641032" style="stroke: #ffffff; stroke-width: 0.75"/>
     <use xlink:href="#m00361d21b0" x="437.720483" y="169.617804" style="stroke: #ffffff; stroke-width: 0.75"/>
     <use xlink:href="#m00361d21b0" x="450.402301" y="162.225816" style="stroke: #ffffff; stroke-width: 0.75"/>
     <use xlink:href="#m00361d21b0" x="463.084119" y="138.456741" style="stroke: #ffffff; stroke-width: 0.75"/>
     <use xlink:href="#m00361d21b0" x="475.765937" y="143.802971" style="stroke: #ffffff; stroke-width: 0.75"/>
     <use xlink:href="#m00361d21b0" x="488.447756" y="135.583435" style="stroke: #ffffff; stroke-width: 0.75"/>
     <use xlink:href="#m00361d21b0" x="501.129574" y="126.294557" style="stroke: #ffffff; stroke-width: 0.75"/>
     <use xlink:href="#m00361d21b0" x="513.811392" y="117.969971" style="stroke: #ffffff; stroke-width: 0.75"/>
     <use xlink:href="#m00361d21b0" x="526.49321" y="107.043285" style="stroke: #ffffff; stroke-width: 0.75"/>
     <use xlink:href="#m00361d21b0" x="539.175028" y="100.13001" style="stroke: #ffffff; stroke-width: 0.75"/>
     <use xlink:href="#m00361d21b0" x="551.856847" y="93.629239" style="stroke: #ffffff; stroke-width: 0.75"/>
     <use xlink:href="#m00361d21b0" x="564.538665" y="85.398212" style="stroke: #ffffff; stroke-width: 0.75"/>
     <use xlink:href="#m00361d21b0" x="577.220483" y="67.579582" style="stroke: #ffffff; stroke-width: 0.75"/>
     <use xlink:href="#m00361d21b0" x="589.902301" y="42.710419" style="stroke: #ffffff; stroke-width: 0.75"/>
    </g>
   </g>
   <g id="patch_3">
    <path d="M 57.265938 357.2925 
L 57.265938 24.6525 
" style="fill: none; stroke: #ffffff; stroke-width: 0.8; stroke-linejoin: miter; stroke-linecap: square"/>
   </g>
   <g id="patch_4">
    <path d="M 615.265938 357.2925 
L 615.265938 24.6525 
" style="fill: none; stroke: #ffffff; stroke-width: 0.8; stroke-linejoin: miter; stroke-linecap: square"/>
   </g>
   <g id="patch_5">
    <path d="M 57.265938 357.2925 
L 615.265938 357.2925 
" style="fill: none; stroke: #ffffff; stroke-width: 0.8; stroke-linejoin: miter; stroke-linecap: square"/>
   </g>
   <g id="patch_6">
    <path d="M 57.265938 24.6525 
L 615.265938 24.6525 
" style="fill: none; stroke: #ffffff; stroke-width: 0.8; stroke-linejoin: miter; stroke-linecap: square"/>
   </g>
   <g id="text_17">
    <!-- sellingprice vs. condition -->
    <g style="fill: #262626" transform="translate(249.559687 18.6525) scale(0.16 -0.16)">
     <defs>
      <path id="ArialMT-73" d="M 197 991 
L 753 1078 
Q 800 744 1014 566 
Q 1228 388 1613 388 
Q 2000 388 2187 545 
Q 2375 703 2375 916 
Q 2375 1106 2209 1216 
Q 2094 1291 1634 1406 
Q 1016 1563 777 1677 
Q 538 1791 414 1992 
Q 291 2194 291 2438 
Q 291 2659 392 2848 
Q 494 3038 669 3163 
Q 800 3259 1026 3326 
Q 1253 3394 1513 3394 
Q 1903 3394 2198 3281 
Q 2494 3169 2634 2976 
Q 2775 2784 2828 2463 
L 2278 2388 
Q 2241 2644 2061 2787 
Q 1881 2931 1553 2931 
Q 1166 2931 1000 2803 
Q 834 2675 834 2503 
Q 834 2394 903 2306 
Q 972 2216 1119 2156 
Q 1203 2125 1616 2013 
Q 2213 1853 2448 1751 
Q 2684 1650 2818 1456 
Q 2953 1263 2953 975 
Q 2953 694 2789 445 
Q 2625 197 2315 61 
Q 2006 -75 1616 -75 
Q 969 -75 630 194 
Q 291 463 197 991 
z
" transform="scale(0.015625)"/>
      <path id="ArialMT-20" transform="scale(0.015625)"/>
      <path id="ArialMT-76" d="M 1344 0 
L 81 3319 
L 675 3319 
L 1388 1331 
Q 1503 1009 1600 663 
Q 1675 925 1809 1294 
L 2547 3319 
L 3125 3319 
L 1869 0 
L 1344 0 
z
" transform="scale(0.015625)"/>
     </defs>
     <use xlink:href="#ArialMT-73"/>
     <use xlink:href="#ArialMT-65" transform="translate(50 0)"/>
     <use xlink:href="#ArialMT-6c" transform="translate(105.615234 0)"/>
     <use xlink:href="#ArialMT-6c" transform="translate(127.832031 0)"/>
     <use xlink:href="#ArialMT-69" transform="translate(150.048828 0)"/>
     <use xlink:href="#ArialMT-6e" transform="translate(172.265625 0)"/>
     <use xlink:href="#ArialMT-67" transform="translate(227.880859 0)"/>
     <use xlink:href="#ArialMT-70" transform="translate(283.496094 0)"/>
     <use xlink:href="#ArialMT-72" transform="translate(339.111328 0)"/>
     <use xlink:href="#ArialMT-69" transform="translate(372.412109 0)"/>
     <use xlink:href="#ArialMT-63" transform="translate(394.628906 0)"/>
     <use xlink:href="#ArialMT-65" transform="translate(444.628906 0)"/>
     <use xlink:href="#ArialMT-20" transform="translate(500.244141 0)"/>
     <use xlink:href="#ArialMT-76" transform="translate(528.027344 0)"/>
     <use xlink:href="#ArialMT-73" transform="translate(578.027344 0)"/>
     <use xlink:href="#ArialMT-2e" transform="translate(628.027344 0)"/>
     <use xlink:href="#ArialMT-20" transform="translate(655.810547 0)"/>
     <use xlink:href="#ArialMT-63" transform="translate(683.59375 0)"/>
     <use xlink:href="#ArialMT-6f" transform="translate(733.59375 0)"/>
     <use xlink:href="#ArialMT-6e" transform="translate(789.208984 0)"/>
     <use xlink:href="#ArialMT-64" transform="translate(844.824219 0)"/>
     <use xlink:href="#ArialMT-69" transform="translate(900.439453 0)"/>
     <use xlink:href="#ArialMT-74" transform="translate(922.65625 0)"/>
     <use xlink:href="#ArialMT-69" transform="translate(950.439453 0)"/>
     <use xlink:href="#ArialMT-6f" transform="translate(972.65625 0)"/>
     <use xlink:href="#ArialMT-6e" transform="translate(1028.271484 0)"/>
    </g>
   </g>
   <g id="legend_1">
    <g id="patch_7">
     <path d="M 64.265938 46.915 
L 146.287813 46.915 
Q 148.287813 46.915 148.287813 44.915 
L 148.287813 31.6525 
Q 148.287813 29.6525 146.287813 29.6525 
L 64.265938 29.6525 
Q 62.265938 29.6525 62.265938 31.6525 
L 62.265938 44.915 
Q 62.265938 46.915 64.265938 46.915 
z
" style="fill: #eaeaf2; opacity: 0.8; stroke: #cccccc; stroke-linejoin: miter"/>
    </g>
    <g id="line2d_16">
     <path d="M 66.265938 37.310312 
L 76.265938 37.310312 
L 86.265938 37.310312 
" style="fill: none; stroke: #000000; stroke-width: 2; stroke-linecap: round"/>
     <g>
      <use xlink:href="#m00361d21b0" x="76.265938" y="37.310312" style="stroke: #ffffff; stroke-width: 0.75"/>
     </g>
    </g>
    <g id="text_18">
     <!-- sellingprice -->
     <g style="fill: #262626" transform="translate(94.265938 40.810312) scale(0.1 -0.1)">
      <use xlink:href="#ArialMT-73"/>
      <use xlink:href="#ArialMT-65" transform="translate(50 0)"/>
      <use xlink:href="#ArialMT-6c" transform="translate(105.615234 0)"/>
      <use xlink:href="#ArialMT-6c" transform="translate(127.832031 0)"/>
      <use xlink:href="#ArialMT-69" transform="translate(150.048828 0)"/>
      <use xlink:href="#ArialMT-6e" transform="translate(172.265625 0)"/>
      <use xlink:href="#ArialMT-67" transform="translate(227.880859 0)"/>
      <use xlink:href="#ArialMT-70" transform="translate(283.496094 0)"/>
      <use xlink:href="#ArialMT-72" transform="translate(339.111328 0)"/>
      <use xlink:href="#ArialMT-69" transform="translate(372.412109 0)"/>
      <use xlink:href="#ArialMT-63" transform="translate(394.628906 0)"/>
      <use xlink:href="#ArialMT-65" transform="translate(444.628906 0)"/>
     </g>
    </g>
   </g>
  </g>
 </g>
 <defs>
  <clipPath id="pdbe3011ff4">
   <rect x="57.265938" y="24.6525" width="558" height="332.64"/>
  </clipPath>
 </defs>
</svg>
